<svg viewBox="0 0 330 200" xmlns="http://www.w3.org/2000/svg"><g><g><g><g><g><line x1="80" y1="178" x2="75" y2="178" style="visibility: inherit;" fill="rgb(0, 0, 0)" stroke="rgb(204, 204, 204)" stroke-width="1px"></line><line x1="80" y1="163.16666666666666" x2="75" y2="163.16666666666666" style="visibility: inherit;" fill="rgb(0, 0, 0)" stroke="rgb(204, 204, 204)" stroke-width="1px"></line><line x1="80" y1="148.33333333333334" x2="75" y2="148.33333333333334" style="visibility: inherit;" fill="rgb(0, 0, 0)" stroke="rgb(204, 204, 204)" stroke-width="1px"></line><line x1="80" y1="133.5" x2="75" y2="133.5" style="visibility: inherit;" fill="rgb(0, 0, 0)" stroke="rgb(204, 204, 204)" stroke-width="1px"></line><line x1="80" y1="118.66666666666667" x2="75" y2="118.66666666666667" style="visibility: inherit;" fill="rgb(0, 0, 0)" stroke="rgb(204, 204, 204)" stroke-width="1px"></line><line x1="80" y1="103.83333333333333" x2="75" y2="103.83333333333333" style="visibility: inherit;" fill="rgb(0, 0, 0)" stroke="rgb(204, 204, 204)" stroke-width="1px"></line><line x1="80" y1="89" x2="75" y2="89" style="visibility: inherit;" fill="rgb(0, 0, 0)" stroke="rgb(204, 204, 204)" stroke-width="1px"></line><line x1="80" y1="74.16666666666666" x2="75" y2="74.16666666666666" style="visibility: inherit;" fill="rgb(0, 0, 0)" stroke="rgb(204, 204, 204)" stroke-width="1px"></line><line x1="80" y1="59.33333333333334" x2="75" y2="59.33333333333334" style="visibility: inherit;" fill="rgb(0, 0, 0)" stroke="rgb(204, 204, 204)" stroke-width="1px"></line><line x1="80" y1="44.5" x2="75" y2="44.5" style="visibility: inherit;" fill="rgb(0, 0, 0)" stroke="rgb(204, 204, 204)" stroke-width="1px"></line><line x1="80" y1="29.666666666666657" x2="75" y2="29.666666666666657" style="visibility: inherit;" fill="rgb(0, 0, 0)" stroke="rgb(204, 204, 204)" stroke-width="1px"></line><line x1="80" y1="14.833333333333343" x2="75" y2="14.833333333333343" style="visibility: inherit;" fill="rgb(0, 0, 0)" stroke="rgb(204, 204, 204)" stroke-width="1px"></line><line x1="80" y1="0" x2="75" y2="0" style="visibility: inherit;" fill="rgb(0, 0, 0)" stroke="rgb(204, 204, 204)" stroke-width="1px"></line></g><g transform="translate(70, 0)"><text x="0" y="178" dx="0em" dy="0.3em" style="text-anchor: end; visibility: hidden; font-family: &quot;Helvetica Neue&quot;, sans-serif; font-size: 12px; font-weight: 200;" fill="rgb(50, 49, 63)" stroke="none" stroke-width="1px">-2e+7</text><text x="0" y="163.16666666666666" dx="0em" dy="0.3em" style="text-anchor: end; visibility: inherit; font-family: &quot;Helvetica Neue&quot;, sans-serif; font-size: 12px; font-weight: 200;" fill="rgb(50, 49, 63)" stroke="none" stroke-width="1px">-1.8e+7</text><text x="0" y="148.33333333333334" dx="0em" dy="0.3em" style="text-anchor: end; visibility: hidden; font-family: &quot;Helvetica Neue&quot;, sans-serif; font-size: 12px; font-weight: 200;" fill="rgb(50, 49, 63)" stroke="none" stroke-width="1px">-1.6e+7</text><text x="0" y="133.5" dx="0em" dy="0.3em" style="text-anchor: end; visibility: inherit; font-family: &quot;Helvetica Neue&quot;, sans-serif; font-size: 12px; font-weight: 200;" fill="rgb(50, 49, 63)" stroke="none" stroke-width="1px">-1.4e+7</text><text x="0" y="118.66666666666667" dx="0em" dy="0.3em" style="text-anchor: end; visibility: hidden; font-family: &quot;Helvetica Neue&quot;, sans-serif; font-size: 12px; font-weight: 200;" fill="rgb(50, 49, 63)" stroke="none" stroke-width="1px">-1.2e+7</text><text x="0" y="103.83333333333333" dx="0em" dy="0.3em" style="text-anchor: end; visibility: inherit; font-family: &quot;Helvetica Neue&quot;, sans-serif; font-size: 12px; font-weight: 200;" fill="rgb(50, 49, 63)" stroke="none" stroke-width="1px">-1e+7</text><text x="0" y="89" dx="0em" dy="0.3em" style="text-anchor: end; visibility: hidden; font-family: &quot;Helvetica Neue&quot;, sans-serif; font-size: 12px; font-weight: 200;" fill="rgb(50, 49, 63)" stroke="none" stroke-width="1px">-8e+6</text><text x="0" y="74.16666666666666" dx="0em" dy="0.3em" style="text-anchor: end; visibility: inherit; font-family: &quot;Helvetica Neue&quot;, sans-serif; font-size: 12px; font-weight: 200;" fill="rgb(50, 49, 63)" stroke="none" stroke-width="1px">-6e+6</text><text x="0" y="59.33333333333334" dx="0em" dy="0.3em" style="text-anchor: end; visibility: hidden; font-family: &quot;Helvetica Neue&quot;, sans-serif; font-size: 12px; font-weight: 200;" fill="rgb(50, 49, 63)" stroke="none" stroke-width="1px">-4e+6</text><text x="0" y="44.5" dx="0em" dy="0.3em" style="text-anchor: end; visibility: inherit; font-family: &quot;Helvetica Neue&quot;, sans-serif; font-size: 12px; font-weight: 200;" fill="rgb(50, 49, 63)" stroke="none" stroke-width="1px">-2e+6</text><text x="0" y="29.666666666666657" dx="0em" dy="0.3em" style="text-anchor: end; visibility: hidden; font-family: &quot;Helvetica Neue&quot;, sans-serif; font-size: 12px; font-weight: 200;" fill="rgb(50, 49, 63)" stroke="none" stroke-width="1px">0</text><text x="0" y="14.833333333333343" dx="0em" dy="0.3em" style="text-anchor: end; visibility: inherit; font-family: &quot;Helvetica Neue&quot;, sans-serif; font-size: 12px; font-weight: 200;" fill="rgb(50, 49, 63)" stroke="none" stroke-width="1px">2e+6</text><text x="0" y="0" dx="0em" dy="0.3em" style="text-anchor: end; visibility: hidden; font-family: &quot;Helvetica Neue&quot;, sans-serif; font-size: 12px; font-weight: 200;" fill="rgb(50, 49, 63)" stroke="none" stroke-width="1px">4e+6</text></g><line x1="80" y1="0" x2="80" y2="178" fill="rgb(0, 0, 0)" stroke="rgb(204, 204, 204)" stroke-width="1px"></line></g></g><g transform="translate(80, 0)" clip-path="url(#clip_0)"><clipPath id="clip_0"><rect width="250" height="178"></rect></clipPath><g><g><g><line x1="0" y1="0" x2="0" y2="178" fill="rgb(0, 0, 0)" stroke="rgb(60, 60, 60)" stroke-width="1px" opacity="0.25"></line><line x1="20.833333333333332" y1="0" x2="20.833333333333332" y2="178" fill="rgb(0, 0, 0)" stroke="rgb(60, 60, 60)" stroke-width="1px" opacity="0.25"></line><line x1="41.666666666666664" y1="0" x2="41.666666666666664" y2="178" fill="rgb(0, 0, 0)" stroke="rgb(60, 60, 60)" stroke-width="1px" opacity="0.25"></line><line x1="62.5" y1="0" x2="62.5" y2="178" fill="rgb(0, 0, 0)" stroke="rgb(60, 60, 60)" stroke-width="1px" opacity="0.25"></line><line x1="83.33333333333333" y1="0" x2="83.33333333333333" y2="178" fill="rgb(0, 0, 0)" stroke="rgb(60, 60, 60)" stroke-width="1px" opacity="0.25"></line><line x1="104.16666666666667" y1="0" x2="104.16666666666667" y2="178" fill="rgb(0, 0, 0)" stroke="rgb(60, 60, 60)" stroke-width="1px" opacity="0.25"></line><line x1="125" y1="0" x2="125" y2="178" fill="rgb(0, 0, 0)" stroke="rgb(60, 60, 60)" stroke-width="1px" opacity="0.25"></line><line x1="145.83333333333334" y1="0" x2="145.83333333333334" y2="178" fill="rgb(0, 0, 0)" stroke="rgb(60, 60, 60)" stroke-width="1px" opacity="0.25"></line><line x1="166.66666666666666" y1="0" x2="166.66666666666666" y2="178" fill="rgb(0, 0, 0)" stroke="rgb(60, 60, 60)" stroke-width="1px" opacity="0.25"></line><line x1="187.5" y1="0" x2="187.5" y2="178" fill="rgb(0, 0, 0)" stroke="rgb(60, 60, 60)" stroke-width="1px" opacity="0.25"></line><line x1="208.33333333333334" y1="0" x2="208.33333333333334" y2="178" fill="rgb(0, 0, 0)" stroke="rgb(60, 60, 60)" stroke-width="1px" opacity="0.25"></line><line x1="229.16666666666666" y1="0" x2="229.16666666666666" y2="178" fill="rgb(0, 0, 0)" stroke="rgb(60, 60, 60)" stroke-width="1px" opacity="0.25"></line><line x1="250" y1="0" x2="250" y2="178" fill="rgb(0, 0, 0)" stroke="rgb(60, 60, 60)" stroke-width="1px" opacity="0.25"></line></g><g><line x1="0" y1="178" x2="250" y2="178" fill="rgb(0, 0, 0)" stroke="rgb(60, 60, 60)" stroke-width="1px" opacity="0.25"></line><line x1="0" y1="163.16666666666666" x2="250" y2="163.16666666666666" fill="rgb(0, 0, 0)" stroke="rgb(60, 60, 60)" stroke-width="1px" opacity="0.25"></line><line x1="0" y1="148.33333333333334" x2="250" y2="148.33333333333334" fill="rgb(0, 0, 0)" stroke="rgb(60, 60, 60)" stroke-width="1px" opacity="0.25"></line><line x1="0" y1="133.5" x2="250" y2="133.5" fill="rgb(0, 0, 0)" stroke="rgb(60, 60, 60)" stroke-width="1px" opacity="0.25"></line><line x1="0" y1="118.66666666666667" x2="250" y2="118.66666666666667" fill="rgb(0, 0, 0)" stroke="rgb(60, 60, 60)" stroke-width="1px" opacity="0.25"></line><line x1="0" y1="103.83333333333333" x2="250" y2="103.83333333333333" fill="rgb(0, 0, 0)" stroke="rgb(60, 60, 60)" stroke-width="1px" opacity="0.25"></line><line x1="0" y1="89" x2="250" y2="89" fill="rgb(0, 0, 0)" stroke="rgb(60, 60, 60)" stroke-width="1px" opacity="0.25"></line><line x1="0" y1="74.16666666666666" x2="250" y2="74.16666666666666" fill="rgb(0, 0, 0)" stroke="rgb(60, 60, 60)" stroke-width="1px" opacity="0.25"></line><line x1="0" y1="59.33333333333334" x2="250" y2="59.33333333333334" fill="rgb(0, 0, 0)" stroke="rgb(60, 60, 60)" stroke-width="1px" opacity="0.25"></line><line x1="0" y1="44.5" x2="250" y2="44.5" fill="rgb(0, 0, 0)" stroke="rgb(60, 60, 60)" stroke-width="1px" opacity="0.25"></line><line x1="0" y1="29.666666666666657" x2="250" y2="29.666666666666657" fill="rgb(0, 0, 0)" stroke="rgb(60, 60, 60)" stroke-width="1px" opacity="0.25"></line><line x1="0" y1="14.833333333333343" x2="250" y2="14.833333333333343" fill="rgb(0, 0, 0)" stroke="rgb(60, 60, 60)" stroke-width="1px" opacity="0.25"></line><line x1="0" y1="0" x2="250" y2="0" fill="rgb(0, 0, 0)" stroke="rgb(60, 60, 60)" stroke-width="1px" opacity="0.25"></line></g></g></g><g><g><line x1="0" y1="29.666666666666657" x2="250" y2="29.666666666666657" fill="rgb(0, 0, 0)" stroke="rgb(153, 153, 153)" stroke-width="1.5px"></line></g></g><g><g><line x1="20.833333333333332" y1="0" x2="20.833333333333332" y2="178" fill="rgb(0, 0, 0)" stroke="rgb(153, 153, 153)" stroke-width="1.5px"></line></g></g><g><g><g><g><g><path stroke="rgb(204, 51, 17)" stroke-width="2px" d="M21.669375000000002,62.29427804166666L22.50275,132.10858280729167L23.336125,87.03372326488098L23.7528125,68.19993149563417L24.586187499999998,59.99702729146425L25.419562499999998,61.702314103025415L25.836250000000003,106.83301004507186L26.2529375,114.71806124188633L26.669625,87.71475337579628L27.086312500000002,101.92548659507034L27.503,129.0708548873804L27.9196875,108.99118132036158L28.336375,92.07519485656536L28.7530625,76.60228329613358L29.16975,102.13491450415754L29.5864375,77.397257404208L30.4198125,62.522851477489155L31.253187500000003,62.423277390420196L31.669875,87.11449545100726L32.503249999999994,123.4729932615574L33.7533125,145.28724116168053L34.17,105.102121415282L34.5866875,134.26446981971495L35.003375000000005,151.7617314671937L35.4200625,162.26003539396334L36.2534375,114.22480498038513L37.5035,139.73256542851158L37.9201875,155.04251532552536L38.7535625,164.2284792466103L39.170249999999996,169.7400554330986L39.586937500000005,173.0470003651734L40.003625,175.03116704368378L40.4203125,176.22166694972566L40.836999999999996,176.93596685696758L41.670375,177.3645467882148L42.0870625,177.62169474224788L43.337125,177.77598351297024L43.7538125,127.1850360949282L44.170500000000004,147.51398836891477L44.5871875,159.7113597043204L45.003875,167.02978249512861L46.2539375,171.42083616585694L46.670625,174.05546836694157L47.087312499999996,175.63624768710545L47.504,121.86249975250705L47.9206875,144.32046651957154L48.337375,157.7952465789138L48.7540625,122.41551539655393L49.17075,144.65227590489857L49.5874375,157.98100594304688L50.004125,165.99157023253366L50.8375,123.26130742272917L51.2541875,145.1597511203424L51.670874999999995,158.29881733888587L52.0875625,166.18225707000312L52.9209375,116.59237908364985L53.337625,141.15839411686213L53.7543125,102.71036269927872L54.171,132.82918428623637L55.004375,96.94230520924006L55.4210625,129.36834979221166L56.254437499999995,148.823976541994L56.671125,160.49735259186318L57.0878125,167.50137822178462L57.5045,163.35321433307072L57.9211875,168.4234538665091L58.337875,119.63608491157207L59.17125,109.09259288027656L59.5879375,87.66408617816595L60.004625,123.80141837356625L60.4213125,90.37452151580639L61.2546875,73.23470795948383L62.50475,65.4220138506903L62.921437499999996,56.09101670208085L63.338125,53.11561257124852L63.75481249999999,46.64866897608243L64.5881875,47.09722103564948L65.004875,49.537659313056366L65.42156250000001,46.99704205866712L66.67162499999999,45.48545173520026L67.0883125,48.65069550778685L68.33837500000001,47.9497394046721L69.5884375,50.33415278446991L70.005125,51.56440692901529L70.4218125,48.444697924075854L70.8385,48.63805818777885L71.25518749999999,47.91198972100062L71.671875,46.694545199267054L72.50524999999999,52.282034961226884L72.92193750000001,53.12981442673615L73.33862500000001,52.83749026437502L73.7553125,53.73972260029167L74.172,56.20663336850832L75.005375,57.60072721277166L75.4220625,52.86777563599631L76.672125,50.64921578993115L77.9221875,49.067696182291996L78.338875,44.92280517187521L79.17225,71.32285013645846L80.005625,61.96136195687508L80.42231249999999,108.3797838407917L80.839,136.23083697114168L81.25568750000001,152.94146884935168L81.672375,162.96784797627765L82.0890625,168.98367545243326L82.9224375,123.54037471312661L83.339125,104.27517312787597L83.7558125,133.10491374339225L84.1725,151.065914912702L85.00587499999999,157.19501868095452L85.4225625,111.72377101273938L85.83925,82.41130806597695L86.672625,79.71933977291951L87.0893125,71.96265594708504L87.506,86.97317340158436L88.339375,123.27346690761729L88.7560625,145.16704681123704L89.58943749999999,158.3031947534089L90.00612500000001,166.18488351871198L90.8395,170.87615484456052L91.2561875,120.11229575256965L91.672875,110.54299415154179L92.50625,101.53624645759173L92.9229375,80.65980668288837L94.173,65.36274722223301L94.58968750000001,65.77128486667314L95.006375,102.13285665333723L95.4230625,132.48268065866898L96.2564375,150.69257506186804L96.673125,106.58542437462083L97.0898125,135.15422129143917L97.5065,152.29549944153015L98.33987499999999,162.58026633158477L98.7565625,168.73785359895086L99.17325000000001,119.70643114270385L99.5899375,119.14397201895564L100.4233125,88.92621949470671L100.84,123.71129376349069L102.0900625,145.4270966580944L103.75681250000001,158.44093812818997L104.1735,166.26752954358065L105.4235625,165.23720065948174L105.84025,132.19156704568906L106.67362499999999,150.14899002741342L107.09031250000001,126.34133681644805L107.507,124.53893258986884L107.9236875,97.88393042058796L108.34037500000001,73.69609447526945L109.5904375,74.85629976849499L110.007125,105.68367702776366L110.4238125,91.63841038332487L110.46854166666667,67.53479007218242L111.34585416666665,108.87502784330944L111.76254166666668,96.45549752265234L112.17922916666667,101.55482484692475L112.59591666666667,109.48832824148818L113.01260416666666,83.29506836155956L113.42929166666667,67.69478758776908L113.88466666666666,61.41819507766144L114.30135416666666,53.60379830076354L114.71804166666668,59.632167547124794L115.55141666666667,63.26045204494153L115.96810416666666,57.30294066863161L116.38479166666667,102.23607640117896L116.80147916666667,83.58368256570738L117.21816666666666,65.97571932275775L117.63485416666667,110.78839826032132L118.05154166666667,86.2162849811928L118.88491666666667,112.29179975538236L119.30160416666668,109.16251708656274L120.13497916666667,82.28245820610431L120.96835416666667,100.69445772366258L121.80172916666666,102.31963386753088L122.21841666666666,78.55298986635187L123.05179166666666,72.76263098647777L123.46847916666667,109.23547825855333L123.88516666666668,90.36523073846533L124.30185416666667,79.67514835974586L124.71854166666667,119.00805568251417L125.13522916666666,95.3385287345085L125.55191666666668,75.27400134903843L126.38529166666667,70.74022252608972L127.63535416666666,106.76077264898717L128.05204166666667,135.25943025605898L128.46872916666666,100.46604452030205L128.88541666666666,77.68938841218123L129.71879166666668,117.81659971397539L130.55216666666666,129.47066546171857L131.38554166666665,94.66324883953115L132.21891666666667,83.74651888705202L133.05229166666666,76.53768214889789L133.46897916666666,72.54086723933872L133.88566666666665,67.63785326860324L134.30235416666667,58.03840544866193L134.71904166666667,102.91286706919716L135.5524166666667,85.5154861915183L135.96910416666665,68.40693263991099L136.80247916666667,112.07786011727993L137.21916666666667,87.26209146203463L137.63585416666666,69.28960351888743L138.46922916666668,67.19300692799912L140.55266666666665,56.361384610966155L141.38604166666664,49.53416994991301L141.80272916666667,85.5574139366145L142.63610416666666,77.54565739530203L143.05279166666668,61.435576399681196L143.46947916666667,59.40665673980871L143.88616666666667,53.09554828971855L144.30285416666666,65.61883669049782L144.7195416666667,58.168235514298686L145.13622916666665,56.78013096691254L145.55291666666668,51.774579259314194L145.96960416666664,54.27522146392185L146.38629166666666,48.31890977418641L148.05304166666667,45.92086096867854L148.46972916666667,43.064847231207125L149.30310416666669,66.74423393872426L150.55316666666664,62.30121508823456L150.96985416666666,54.09213816127408L151.80322916666665,62.47905316343112L152.21991666666668,55.71716394805867L152.63660416666667,54.706388427168534L153.05329166666667,59.38008470630112L153.46997916666666,50.32676794878067L154.30335416666665,51.39924054426841L154.72004166666667,50.06527389322771L155.13672916666664,101.17353573593662L155.55341666666666,131.90708810822863L155.9701041666667,98.8625047232705L156.38679166666665,82.80959350896232L157.63685416666667,71.43379907204405L158.05354166666666,58.2691672473931L158.5098125,47.36466874947752L158.96860416666667,40.70989408301986L159.42952083333333,39.3464176560619L160.26289583333335,94.8108172603038L160.6795833333333,72.54946055201562L160.725,57.701577239542715L160.768625,47.03935149841314L160.81016666666667,41.20957011988119L161.22685416666667,47.90410923026204L161.64354166666666,45.96660475899057L162.06022916666666,42.26001983247767L162.47691666666665,40.397689782819924L162.51797916666666,36.513286110316955L162.55720833333334,34.77139624327353L163.39058333333332,36.0273219084641L163.80727083333332,38.199880699245114L164.22395833333334,37.653312527880416L164.6406458333333,40.13993580839494L164.7188541666667,37.291703792328605L165.55222916666668,40.78309994206384L165.96891666666667,44.06444929023829L166.38560416666667,43.54091513664298L166.80229166666666,43.00575201948581L167.21897916666666,40.543277992941455L167.63566666666665,45.97487340409822L168.05235416666667,42.315904594542275L168.46904166666667,42.08412159422534L168.88572916666666,40.20940772528522L168.92470833333334,38.052884358087795L169.34139583333334,38.60559073151936L169.42433333333335,36.14444990245326L169.46570833333334,34.20202089563864L170.29908333333333,36.96868880821651L170.757,34.68579162347157L170.79833333333332,33.811226506374624L171.21502083333334,35.7346375996581L171.253125,33.744187569690695L171.29558333333333,32.695316666293564L171.75072916666667,36.61232369144281L171.79354166666667,34.32528034299068L172.62691666666666,37.16287791412776L172.6665,35.360329524518306L173.0831875,48.29964234804433L173.499875,46.179863108826595L173.54183333333333,39.965036200191776L174.37520833333335,40.85940585761509L174.7918958333333,39.35454453956905L174.83704166666666,37.415935675824755L174.87564583333335,34.75890809247403L175.37347916666667,35.25067006590109L175.45575,33.86087872599899L175.49883333333332,32.68908186164103L175.58122916666665,32.73334008052629L175.62047916666668,32.322600650399124L175.65979166666668,31.742242852218652L176.1165,31.38554220872703L176.5331875,33.5670152752362L177.3665625,35.28263245264171L178.19993749999998,36.25831610491838L179.15766666666667,34.94799032545103L179.20360416666668,33.390489290583105L179.33291666666668,32.49515752330822L179.37245833333336,32.150300720234924L179.41774999999998,31.68913547120343L179.45729166666666,31.290259161367885L179.49758333333332,31.28850413484156L179.91427083333335,34.49946700590496L180.74764583333334,38.4011820493763L181.58102083333333,37.38588442337581L182.03891666666667,35.4912822779838L182.49858333333333,37.676391941790286L182.99345833333334,34.992627334344974L183.03243750000001,33.491785448002815L183.11472916666665,32.675442749010045L183.15479166666668,31.890863613468525L183.1921458333333,31.953334554539452L183.23327083333334,31.43039181397367L183.27358333333333,31.245527604530025L183.36002083333332,31.62725063980136L183.77670833333335,33.51007096513081L184.23366666666666,32.89823081449518L184.27197916666665,32.02359462880128L184.31095833333333,31.793789557489077L184.35193750000002,31.614981996993436L184.768625,33.12305395027943L185.1853125,34.08226073266766L186.0186875,35.3704061333506L186.435375,35.587007959177015L186.89568749999998,35.8377580005062L186.93591666666669,34.6941598919704L186.97516666666667,33.07522336226555L187.01397916666667,32.37883602985934L187.05258333333333,31.747302810103093L187.096,32.09346054752018L187.14035416666667,31.715951079553776L187.18091666666666,31.646903735232257L187.21902083333333,31.248520061972727L187.25691666666665,31.153192456454462L187.2968125,31.19123525668519L187.33941666666666,31.210964710261095L187.37802083333332,31.018581035531668L187.41745833333334,31.529605050485657L187.45635416666667,31.39633445633308L187.53341666666668,31.49335342067485L187.5720625,31.502109492509078L187.68991666666668,31.344508988734617L187.7298125,31.12768507553244L187.88731249999998,31.25769549896529L188.0091875,31.159903390525017L188.425875,33.23682934056501L188.46535416666666,32.646940127255675L188.88204166666668,33.50383250135343L188.92114583333333,32.44525397841619L189.001125,31.8672191380914L189.0404375,31.88109956618817L189.07983333333334,31.44605490065041L189.1990416666667,31.519073145598554L189.2372083333333,31.20171968215081L189.31579166666668,31.501968683248833L189.47233333333332,31.633713950574304L189.51177083333334,31.228822452115395L189.97477083333334,32.50254262543592L190.39145833333333,33.71528689192823L190.80814583333333,35.94897995599024L191.22483333333335,36.149741773594144L191.26364583333333,34.11041648811482L191.30304166666667,32.848415499118914L191.34141666666667,31.996217371867175L191.42010416666665,31.565264290307795L191.46027083333334,31.288159581997178L191.50210416666667,31.33371137992745L191.54289583333335,31.048711606602325L191.58216666666667,31.018063027503075L191.62041666666664,30.981672285772675L191.66443750000002,30.884225155838607L191.78300000000002,30.9968822304823L191.821375,30.931449936726892L191.86127083333335,30.893556107869472L192.09664583333333,30.96699538920086L192.55260416666667,30.91394248247886L192.96929166666666,33.307931914487284L193.38597916666666,34.937351369525715L193.80266666666668,35.68863840296544L193.8439375,33.837603437612614L193.88029166666666,33.54062908027589L193.91889583333332,32.672338048686385L193.95695833333335,32.08055243389933L194.0009375,31.690283558256255L194.042125,31.36633286776626L194.08210416666665,31.148805395138908L194.49879166666668,32.26331848708335L194.54472916666668,31.897210826625013L194.5842291666667,31.403539751704187L194.6251041666667,31.26415056404332L194.66425,31.641075595717666L194.7023125,31.28623425743058L194.78758333333332,31.09857050341668L194.82639583333332,30.966978538508357L194.86620833333333,30.899404419980016L194.94652083333332,30.787828608498415L195.02633333333333,31.00474864478653L195.48264583333332,34.25423492020525L195.52635416666666,33.26879911566485L195.56652083333333,32.34932802200305L195.6478125,31.684009285076826L195.68825,31.746594728337783L195.7309375,31.63134059637767L195.80847916666667,31.288707480222428L195.8479583333333,31.226608079800116L195.88597916666666,31.374855218713407L195.96472916666664,31.234944869248864L196.00547916666667,31.43844895904931L196.04366666666667,31.284870760846246L196.081875,31.104928633070244L196.15975,31.372563056925486L196.19939583333334,31.1083760534261L196.23952083333333,30.942683915388983L196.27760416666666,30.959297932566727L196.31616666666667,30.816307674904635L196.35429166666668,31.177886598692766L196.39322916666666,31.349093979007336L196.432625,31.267519432196053L196.47222916666666,32.31098378848429L196.51029166666666,31.72184921736141L196.55033333333333,31.414399321041856L196.59039583333333,31.280744628562616L197.00708333333333,34.85832030630422L197.04691666666665,33.18025856138672L197.12735416666666,32.290009011311184L197.16752083333333,31.629272402620046L197.20577083333333,31.696369786363704L197.286,31.296841762443222L197.3241875,31.23839245329927L197.36325,30.985902681875388L197.40327083333335,30.931187558083536L197.48070833333333,30.93086188641263L197.5209375,31.482140474555905L197.55962499999998,31.586540670150214L197.59947916666667,31.192349883079743L197.6389375,31.12273106161868L197.67812500000002,31.15184316978369L197.71985416666666,31.025239923224376L197.79691666666665,31.319217739351302L197.87579166666666,31.13186268058996L197.91566666666665,30.921079196895647L197.95485416666668,30.91762295980405L198.06629166666667,31.261032384215753L198.22239583333334,31.00053139381069L198.26085416666666,30.952124178473923L198.30154166666665,31.383169752917695L198.34085416666667,31.439207417375627L198.380625,31.51520680980036L198.41887499999999,31.20883225827606L198.45754166666666,31.334277289340633L198.4970416666667,31.244311497041878L198.61358333333334,31.436847790933484L198.65347916666667,31.126808372476745L198.731,31.080868079215236L198.813125,30.959287640758305L198.85008333333334,30.796298680288288L198.88825,31.439112129006304L198.96614583333334,31.303091747195452L199.00602083333334,31.077687595192288L199.04435416666666,31.008226533677885L199.08470833333334,30.96890918479005L199.12566666666666,30.843826837436524L199.16427083333332,30.748217015222338L199.20389583333335,31.19098437371673L199.242625,31.008785200271717L199.287625,31.42232224724637L199.32810416666666,31.253944129597812L199.36770833333333,31.090462389737837L199.40654166666667,31.172727349467692L199.44647916666665,30.9857585529098L199.48597916666665,31.219742960391727L199.52452083333333,31.04446353769336L199.5639375,31.10074202313686L199.67972916666665,31.411185222215437L199.71910416666665,31.09408014400637L199.7971875,30.98937787286215L199.87529166666667,31.170713501321444L199.91383333333334,30.945710064594948L199.95327083333333,30.863932528861113L199.99112499999998,31.044561657420843L200.03006249999999,31.19224171997334L200.06916666666666,31.14770311531734L200.10977083333333,31.209920341065384L200.14785416666666,31.153476660889254L200.18629166666665,31.301892326221036L200.26329166666667,31.462064360315964L200.302875,31.44069003754373L200.34172916666668,31.281081313151248L200.3818125,31.11510917018242L200.4218125,30.98436378596361L200.87458333333333,31.11782282053653L200.9135,30.970745580863564L200.95222916666665,31.2468379808098L200.99087500000002,31.07803953275672L201.0299791666667,30.962976635279034L201.0686875,30.82601940434452L201.10689583333334,31.38235598114838L201.14533333333335,31.210519816814013L201.18570833333334,31.139677651546748L201.22427083333332,30.995619551344703L201.26375,31.189720988619314L201.2979375,31.143234161400756L201.33745833333333,30.933800977569632L201.45625,31.13064336779175L201.535,31.001382665466735L201.61333333333334,31.32224457115504L201.72860416666666,31.14827324998467L201.77310416666666,31.3341222385325L201.81245833333332,31.105931147286157L201.85054166666666,30.994198347225847L201.88970833333335,31.400734203127172L201.9277708333333,31.245457063542972L201.9685,31.02169866937578L202.00766666666667,31.220046042771315L202.04677083333334,31.004940354829444L202.0855,31.012313107689323L202.1271875,31.192269651592767L202.17008333333334,31.09938559668481L202.21185416666668,30.996290290823396L202.32908333333333,31.135391213556545L202.36747916666667,30.94981209115477L202.40608333333333,30.88631124948452L202.8614375,30.855324440315712L202.9001875,30.753645431376924L202.97789583333335,30.740517569242797L203.0160625,31.1714674040457L203.054625,31.245689472635746L203.09485416666666,31.275516900768963L203.134125,31.327442646711376L203.17310416666666,31.035480210422662L203.290625,30.8625913697432L203.329875,31.15695063851257L203.36960416666668,31.290912393524223L203.5263125,31.04569499861455L203.565,31.093031415835384L203.64197916666666,31.11150916356374L203.68179166666667,30.924897330950728L203.72191666666666,30.94311873607043L203.7602916666667,30.866298459871416L203.79649999999998,30.780278900922866L203.83543749999998,30.78321081555373L203.87347916666667,30.890378690373893L203.91516666666666,30.833709734536825L203.95425,30.858277963117928L203.9950625,30.77264395859993L204.07241666666667,30.77960375120162L204.1133125,30.8670650387418L204.15254166666665,30.900850698765908L204.19039583333335,30.82339392967623L204.22927083333335,30.872819454159895L204.26785416666667,30.868164109995945L204.3064375,30.86844395297672L204.34714583333331,31.33809024261936L204.4685,31.073899682550802L204.507375,31.145086605363815L204.58570833333334,31.265827933009945L204.62358333333333,31.156676990535146L204.66254166666667,31.055624899008592L204.701,30.889406454509327L204.73579166666667,30.78450960994516L204.77760416666666,30.74069961961294L204.85575,30.845190688955256L204.89483333333334,30.964912173269L204.93322916666668,31.107752694065567L204.97277083333336,31.095268405501855L205.0120625,30.943963520384443L205.05147916666667,30.80290251926192L205.09052083333336,30.73406047509883L205.12929166666666,31.386777712142617L205.2429375,31.544251093952255L205.28170833333334,31.29846327720469L205.35910416666667,31.192106315801965L205.39825000000002,31.61122185302284L205.43710416666667,31.47115769358453L205.47666666666666,31.13110059271321L205.5534375,31.089853775419613L205.63408333333334,30.91145107879342L205.674,30.806398425401056L205.71252083333331,30.802922573990628L205.75060416666665,31.00777745272771L205.78975,31.188721068511597L205.82825,31.177018988502823L205.86735416666664,31.05492468060166L205.90560416666668,31.027065141694322L205.98504166666666,31.034069587099935L206.02429166666667,30.968183085593296L206.06564583333335,31.155225994064324L206.14385416666667,31.355306420396914L206.22072916666667,31.47752340223815L206.2591875,31.258603874155398L206.29749999999999,31.37474159584741L206.33577083333333,31.415052930945933L206.37435416666665,31.096667073932167L206.41270833333334,30.99119170008845L206.49254166666668,30.89582392265723L206.53199999999998,31.017333473386003L206.57183333333333,31.1219639027816L206.61139583333332,30.93605293698144L206.6505625,31.144561714272214L206.69029166666667,31.50521521502165L206.76797916666666,31.31270158995048L206.8855,31.880442752928644L206.96279166666667,31.375542997069687L207.001625,31.147610952929313L207.04072916666667,31.491599179049274L207.15710416666667,31.182550190762896L207.19641666666666,31.440309369666068L207.2749375,31.53011929159129L207.31572916666667,31.841416699954777L207.39502083333332,31.39015678716035L207.434,31.458901537400408L207.4726875,31.121205415929808L207.54952083333333,30.944662726641212L207.58760416666667,30.90287181098472L207.70362500000002,31.08678914752832L207.74258333333333,30.88845143955865L207.82114583333333,31.44875800227689L207.85943749999998,31.156429687824442L207.89929166666667,31.20145269498633L207.9376875,31.03489975032514L208.01452083333334,30.86941985436175L208.05441666666667,30.782036686575367L208.09393749999998,30.714713841111916L208.13352083333334,30.684460478625482L208.21114583333332,30.711059515300263L208.666125,30.874043877930177L208.74370833333333,30.906031696549775L208.7821875,31.26472452938819L208.821625,31.216030893153743L208.862875,30.99699833901724L208.90560416666668,30.853670235702026L209.0609375,30.808851031525393L209.0995,30.718826686883972L209.13841666666667,30.70120513035954L209.17704166666667,30.877508926653235L209.21631250000002,30.880477801825265L209.29354166666667,31.07737823057434L209.33572916666668,30.96558990813628L209.37552083333333,30.902168464152595L209.41572916666667,31.20744454724155L209.45845833333334,31.073904438761588L209.49872916666666,31.496887546590273L209.53777083333333,31.281524665454185L209.57608333333332,31.323018068543348L209.6150625,31.037291803365576L209.65335416666667,31.11291362420684L209.72991666666667,31.139456819836624L209.768125,31.04849141950612L209.80620833333333,30.89646830430786L209.8443125,30.903464266438903L209.88254166666667,30.98017584528L209.92466666666667,30.865023653522144L210.34135416666666,32.11481049836331L210.4210625,32.13578558443467L210.46054166666667,31.942721766285814L210.49960416666667,31.747393264458964L210.5383125,31.36902941805036L210.57789583333334,31.4196185659344L210.61720833333334,31.42526009216479L210.69470833333335,31.222034938111392L210.73310416666666,30.998910646720987L210.88875000000002,30.853943496626357L210.92704166666667,30.774630069850787L211.00560416666667,30.91154860909799L211.04562499999997,31.06962674514631L211.08358333333334,31.168340769483592L211.50027083333333,34.30694012002351L211.53868749999998,32.91174746159743L211.58031250000002,32.11228688581261L211.61841666666666,31.509990141383383L211.6955625,31.29967471503838L211.73354166666667,31.02857285480428L211.77252083333335,31.086323135799233L211.81089583333335,31.09320878095872L211.88860416666665,30.90228660920019L211.9275625,31.288400117603487L211.96627083333334,31.159864177853734L212.00641666666667,31.035163445774742L212.04539583333334,31.110532731527343L212.0845625,30.91967482667681L212.27929166666667,31.063095317881107L212.31762500000002,31.013195106353635L212.357375,31.092394242458028L212.39616666666666,30.98204621943316L212.43570833333334,30.91553554728489L212.47412500000002,30.79538118149594L212.55429166666667,30.763518833376708L212.63216666666668,30.862450190130204L212.749,30.95943556199478L212.78754166666667,30.963980968967718L212.82575,30.84539537252644L212.86502083333335,30.748850066484607L212.97991666666667,30.86534283468245L213.0180208333333,30.876663979976144L213.09718750000002,30.80235249683986L213.13658333333333,30.77683872414559L213.17654166666665,30.911330207924863L213.21633333333335,30.792246079702835L213.2969791666667,31.290771465530014L213.3365,31.06407780275552L213.37554166666666,31.223788533736638L213.41460416666666,31.100909014512837L213.4539375,31.100409390478546L213.49283333333332,30.995645031682955L213.5309375,30.915653916405603L213.57006249999998,31.056275510260008L213.60925,30.972560980635194L213.6870625,31.100641445151922L213.7261041666667,30.918533608757826L213.80347916666668,30.784555739213033L213.87975,30.93008990863197L213.91777083333332,31.13758604413752L213.99527083333334,31.24091479731584L214.07404166666666,31.098021997139483L214.11239583333332,31.03181546651288L214.150375,31.06390736324107L214.1891666666667,30.90554881690298L214.30520833333333,30.792613353683464L214.34327083333332,30.89602169658508L214.3825625,30.841007551805205L214.42154166666666,30.98048426337482L214.49897916666666,31.15016454708737L214.53702083333334,30.986977488669083L214.5765,31.001934404659778L214.614875,31.009284582379195L214.65385416666666,30.927325056198356L214.77029166666668,31.256051545177343L214.84985416666666,31.035666202627255L214.89054166666665,30.918072437722174L214.970625,30.996069926174982L215.00902083333335,30.936169471329976L215.08647916666666,30.861020480193815L215.12491666666668,31.217750278741306L215.1630625,31.078315247973933L215.2013125,30.94610032586769L215.2794375,31.015549705937275L215.31833333333333,30.951763002208196L215.35720833333332,30.941826123199917L215.43379166666668,30.803652780690783L215.46937499999999,31.144804247581135L215.50841666666668,31.066138411048684L215.5465,30.971256695587556L215.62379166666668,30.82715086839417L215.66197916666667,30.95540983822403L215.73754166666666,30.971281877934416L215.8154375,30.827525245771056L215.854125,30.74985937246265L215.93283333333332,30.87734380212339L215.97104166666668,30.969071630753206L216.00997916666668,30.867840227410284L216.0480625,30.937807851550332L216.13193750000002,31.07347752082603L216.21085416666665,30.91176576353729L216.24902083333333,30.852194729997365L216.28922916666667,31.096578868206734L216.3276875,31.094630850611566L216.36729166666666,31.143414031721107L216.40702083333332,31.111787915386827L216.44560416666667,30.933319471107097L216.48508333333334,31.10871295506007L216.52422916666666,31.2652137407444L216.5631875,31.12622865382164L216.64158333333333,31.211018120418004L216.67987499999998,31.03078967225079L216.7179583333333,30.98399168147546L216.87083333333334,31.05296205628113L216.909,31.00334915147701L217.32568750000002,32.15010884296953L217.36420833333332,31.57762191880255L217.40362499999998,31.660825477323186L217.48364583333333,31.236378168685604L217.52272916666666,31.064645360586354L217.56189583333332,30.877518568435136L217.60047916666667,30.88597942960277L217.63972916666665,30.98277123432416L217.83506250000002,31.349233032261168L217.8760208333333,31.112660353731684L217.91585416666666,30.986717973176525L217.95791666666668,31.064244226093393L217.99729166666668,30.8962381788852L218.03537500000002,30.883822629206122L218.11329166666664,30.85136874939866L218.15141666666665,31.021288236097575L218.19010416666669,30.941854683325175L218.22739583333333,30.92955573499512L218.26666666666665,31.283937910788723L218.30612499999998,31.435031132931584L218.34460416666667,31.090943644081847L218.38420833333333,31.31666108228245L218.42245833333334,31.165806635827806L218.50358333333332,31.079012360142542L218.54216666666667,31.211219472856357L218.58147916666667,31.05188801548465L218.61964583333332,30.929378275957447L218.65814583333335,31.169153034845294L218.696375,31.0758335854905L218.73497916666668,31.299222279419325L218.81118750000002,31.252824636922412L218.888625,31.125598777986767L218.92641666666668,30.95366984595873L218.96510416666666,30.882160979450248L219.00429166666666,31.205861585586803L219.04422916666667,31.115956077914603L219.12145833333332,31.39396650299875L219.19814583333334,31.248391936174215L219.2365,31.01613966743372L219.31566666666666,31.077065840564387L219.39483333333334,31.41102232204696L219.4330625,31.234832853644832L219.47316666666666,31.587838800728576L219.55139583333332,31.242865831999637L219.66735416666666,31.077546056491457L219.70522916666664,31.057971829728217L219.82002083333333,30.909237844711924L219.86049999999997,30.931759713597984L219.89854166666666,30.89870840576296L220.01637499999998,30.92982038668694L220.05535416666666,30.82043191847049L220.13352083333334,31.16631490524898L220.1721875,31.15243485460772L220.2116875,30.93892615469173L220.2506875,30.89034904021088L220.288875,30.935900193397345L220.32779166666666,30.828420684788398L220.36775,30.731446843945974L220.40716666666665,30.830489406367576L220.44702083333334,30.77261025527889L220.48641666666666,30.697553503948598L220.56297916666668,30.672783246639995L220.60202083333334,30.771838820900655L220.64306249999998,30.764840386811244L220.75985416666666,31.04578926073259L220.79770833333333,30.88703679550204L220.836,30.90486700125956L220.87460416666664,30.786345259870302L220.91472916666666,30.775730868943015L220.9535,30.814978396365802L220.99416666666667,30.747899696152814L221.07018749999997,30.676956213785445L221.10841666666667,30.808385193896243L221.18508333333332,31.201417031962762L221.22695833333333,31.237689281156804L221.2661666666667,31.04635552702743L221.30497916666667,31.192807682362314L221.34327083333332,31.148888424521544L221.38356249999998,31.12084151252543L221.42233333333334,31.055694152827783L221.46039583333334,30.935100093259138L221.499,31.25243242887217L221.537125,31.23076341826078L221.58133333333333,31.06357400824814L221.62291666666667,30.9084655190114L221.66272916666665,30.788431293177666L221.70222916666665,30.78015135246909L221.7788541666667,30.839460346898136L221.81683333333334,30.836119507618037L221.85702083333334,30.771776854570845L221.89520833333336,30.82115842420083L221.97347916666666,30.762549103999675L222.01260416666665,30.847389953024816L222.16670833333333,30.902902669210704L222.28177083333333,31.04731201194309L222.35877083333332,30.981624244145024L222.39724999999999,30.868666479820348L222.43747916666666,30.829955373829733L222.47581250000002,30.811615227422834L222.51485416666665,31.14866371770367L222.59304166666666,31.083484246247224L222.63104166666668,30.93021839566501L222.66954166666667,30.829724063440693L222.70766666666665,31.030147911501928L222.74652083333334,31.090213698984485L222.785875,30.904640552463576L222.82410416666667,30.811888973144818L222.86208333333332,30.836590563053534L222.9009375,30.819539087311313L222.93897916666666,30.82440223103262L222.9778125,30.724981126379987L223.01718749999998,31.026711920619675L223.05568749999998,30.850066211225965L223.09483333333333,31.00537096527725L223.13420833333333,30.906436285416362L223.172875,30.768892546770644L223.2109583333333,30.760247567645735L223.28785416666665,30.751922820274928L223.3263125,30.698104240602476L223.40314583333335,30.806609655819813L223.4419375,30.941597466408552L223.48225,30.883376955365947L223.56,30.790734684677943L223.59902083333333,30.780099282160904L223.6376875,30.923111771900693L223.676125,31.06386387928626L223.7159375,31.04878241090509L223.75400000000002,31.36679647779306L223.8328958333333,31.19339800542585L223.9124375,31.035953452213846L223.99089583333335,31.121719322369955L224.1068125,30.984816926755315L224.145625,30.883956286261537L224.18427083333333,31.042138025923578L224.22270833333332,30.92070522076247L224.26075,30.810203914749167L224.2997083333333,30.794234670724478L224.37731250000002,30.74177746701801L224.41772916666667,30.842097404169152L224.45575000000002,30.837223088855666L224.4941875,30.82589411841755L224.5334375,31.07048191792552L224.56889583333333,31.321234991380322L224.60760416666668,31.159760098994866L224.64712500000002,31.25619071929276L224.6861875,31.13179350084647L224.7276875,31.108540617695382L224.806625,30.99910973415888L224.845125,30.839007440234923L224.8838125,30.76532629591179L224.96164583333334,30.71798694160958L225,30.90675093111156L225.040625,30.771044155021116L225.07889583333332,30.740894704471003L225.120625,30.746103936224273L225.16,30.71777492840124L225.19920833333333,30.718327906519903L225.23774999999998,30.743894484536952L225.27629166666665,30.93292826832632L225.3158125,30.86912005734996L225.35414583333332,30.84625326826415L225.3921875,30.879304456270972L225.43097916666665,31.251795861262593L225.47106250000002,31.011748156861728L225.55025,30.973350435783715L225.5885,30.909631479178557L225.6269166666667,30.841713274486295L225.66539583333335,30.809741181879275L225.70497916666667,30.799400539856748L225.74383333333333,30.78082246610154L225.78191666666666,30.915193078619268L225.820875,30.8187621836299L225.85910416666667,30.733529355750846L225.9385625,30.79962530303385L225.9778333333333,31.101986489111994L226.05572916666665,30.989550556488012L226.17329166666667,30.880649530767812L226.21208333333334,30.8504287325232L226.25016666666667,30.89778022857641L226.32785416666667,30.86219567620833L226.36610416666667,30.834073018225013L226.405875,31.19621992239334L226.48291666666668,31.14276329718598L226.55981250000002,31.21617082414494L226.59854166666665,30.995053839278626L226.6382291666667,30.97674466190051L226.71664583333333,31.0338885627653L226.7556875,30.993388156929996L226.7951875,30.89680540457468L226.83372916666667,30.795136357328147L226.9116666666667,30.822253597209397L226.94964583333334,30.78598705572145L226.98975,30.715457355828732L227.02902083333333,30.725340121830556L227.06756249999998,30.72480119653585L227.14570833333335,30.708561442921507L227.18645833333335,30.749589077732082L227.22675,30.73683071122258L227.3063125,30.898710168921042L227.3446875,30.910726633644316L227.46075,30.823158743728243L227.49922916666668,30.861255517070276L227.53764583333333,30.790207224304652L227.57637499999998,30.92721881531199L227.65175000000002,31.26741113606218L227.69302083333335,31.257737820699816L227.73166666666665,31.136057824711543L227.7720625,31.257388512014415L227.81114583333334,31.213118688458678L227.84958333333333,31.078755729741857L227.88787499999998,30.93550086701177L227.92758333333333,30.868287316561236L228.00547916666667,30.819242748790913L228.04416666666665,31.068181308128715L228.08433333333335,30.938257483835542L228.12260416666666,30.846160903843014L228.1609375,30.856792344389135L228.20145833333333,30.832848955070972L228.2399375,30.732384159240496L228.31968750000001,30.710269756481807L228.35766666666666,30.71994276534744L228.3964375,30.666652981083445L228.43627083333334,30.73097233604588L228.47445833333333,30.827005893294228L228.5125833333333,30.86566842503902L228.6274375,30.814423516481753L228.70510416666667,30.790298820305708L228.74327083333336,30.758155184891763L228.78247916666666,31.05360002812256L228.82066666666668,31.211468271561046L228.86185416666666,31.011875256686636L228.90033333333335,31.074296004532783L228.9388541666667,31.11597326469885L228.97720833333332,31.062112548923466L229.01531250000002,31.02571222466659L229.05404166666668,30.94011507229996L229.1329375,30.953268940775814" style="fill: none;" fill="none"></path></g></g></g></g><g opacity="0.2"><g><g><g><path stroke="rgb(204, 51, 17)" stroke-width="2px" d="M21.669375000000002,62.29427804166666L22.50275,173.99716566666666L23.336125,43.76185810416666L23.7528125,46.051392375000006L24.586187499999998,49.2873155625L25.419562499999998,64.06133966666667L25.836250000000003,171.37062733333335L26.2529375,126.21454158333333L26.669625,47.890119395833324L27.086312500000002,123.02676925L27.503,169.54270083333333L27.9196875,78.98094366666668L28.336375,66.75644879166667L28.7530625,53.42322899999999L29.16975,140.40384866666668L29.5864375,40.308218666666676L30.4198125,40.2175369375L31.253187500000003,62.27394154166667L31.669875,124.14756108333333L32.503249999999994,178.00741666666667L33.7533125,178.00741666666667L34.17,44.825764104166666L34.5866875,178.00741666666667L35.4200625,178.00741666666667L36.2534375,42.17216420833333L37.5035,177.99414083333335L37.9201875,178.00741666666667L43.337125,178.00741666666667L43.7538125,51.298615437500004L44.170500000000004,178.00741666666667L47.087312499999996,178.00741666666667L47.504,41.20187786458334L47.9206875,178.00741666666667L48.337375,178.00741666666667L48.7540625,69.345918625L49.17075,178.00741666666667L49.5874375,177.974101L50.004125,178.00741666666667L50.8375,59.16591320833332L51.2541875,178.00741666666667L52.0875625,178.00741666666667L52.9209375,42.20756210416667L53.337625,178.00741666666667L53.7543125,45.03831557291667L54.171,178.00741666666667L55.004375,43.111986593750004L55.4210625,178.00741666666667L57.0878125,178.00741666666667L57.5045,157.1309685L57.9211875,176.02881316666668L58.337875,46.45503147916668L59.17125,93.27735483333333L59.5879375,55.521326125L60.004625,178.00741666666667L60.4213125,40.23417622916665L61.2546875,47.52498762500002L62.50475,53.70297268750001L62.921437499999996,42.094520979166674L63.338125,48.652506375L63.75481249999999,36.948253583333326L64.5881875,47.770049124999986L65.004875,53.19831672916666L65.42156250000001,43.186116177083335L66.67162499999999,43.21806624999999L67.0883125,53.39856116666667L68.33837500000001,46.89830525000002L69.5884375,53.910772854166666L70.005125,53.40978814583333L70.4218125,43.76513441666668L70.8385,48.92809858333334L71.25518749999999,46.82288702083332L71.671875,44.868378416666644L72.50524999999999,60.66326960416666L72.92193750000001,54.40148362500001L73.33862500000001,52.39900402083333L73.7553125,55.09307110416667L74.172,59.906999520833324L75.005375,59.69186797916666L75.4220625,45.76834827083334L76.672125,47.32137602083333L77.9221875,46.69541677083333L78.338875,38.70546865624999L79.17225,110.92291758333333L80.005625,47.9191296875L80.42231249999999,178.00741666666667L82.0890625,178.00741666666667L82.9224375,55.37542360416667L83.339125,75.37737075L83.7558125,176.34952466666667L84.1725,178.00741666666667L85.00587499999999,166.38867433333334L85.4225625,43.516899510416664L85.83925,38.44261364583332L86.672625,75.68138733333335L87.0893125,60.32763020833332L87.506,109.48894958333334L88.339375,177.72390716666666L88.7560625,178.00741666666667L90.00612500000001,178.00741666666667L90.8395,177.91306183333333L91.2561875,43.96650711458335L91.672875,96.18904175L92.50625,88.02612491666666L92.9229375,49.34514702083334L94.173,42.41715803124998L94.58968750000001,66.38409133333333L95.006375,156.67521433333334L95.4230625,178.00741666666667L96.2564375,178.00741666666667L96.673125,40.42469834375001L97.0898125,178.00741666666667L98.33987499999999,178.00741666666667L98.7565625,177.9742345L99.17325000000001,46.15929745833333L99.5899375,118.30028333333334L100.4233125,43.599590708333324L100.84,175.88890516666666L102.0900625,178.000801L103.75681250000001,177.96170033333334L104.1735,178.00741666666667L105.4235625,163.69170733333334L105.84025,82.62311662500001L106.67362499999999,177.0851245L107.09031250000001,90.629857L107.507,121.83532625L107.9236875,57.90142716666668L108.34037500000001,37.414340557291666L109.5904375,76.59660770833334L110.007125,151.92474291666667L110.4238125,70.57051041666666L110.46854166666667,31.37935960546875L111.34585416666665,170.8853845L111.76254166666668,77.82620204166668L112.17922916666667,109.20381583333334L112.59591666666667,121.38858333333334L113.01260416666666,44.00517854166665L113.42929166666667,44.29436642708333L113.88466666666666,52.0033063125L114.30135416666666,41.88220313541669L114.71804166666668,68.67472141666666L115.55141666666667,68.70287879166668L115.96810416666666,48.366673604166664L116.38479166666667,169.63578L116.80147916666667,55.60509181250001L117.21816666666666,39.56377445833334L117.63485416666667,178.00741666666667L118.05154166666667,49.35811506249999L118.88491666666667,151.40507191666666L119.30160416666668,104.46859308333333L120.13497916666667,41.96236988541665L120.96835416666667,128.312457L121.80172916666666,104.75739808333333L122.21841666666666,42.90302386458333L123.05179166666666,64.07709266666667L123.46847916666667,163.94474916666667L123.88516666666668,62.059859458333335L124.30185416666667,63.640024791666676L124.71854166666667,178.00741666666667L125.13522916666666,59.83423831249999L125.55191666666668,45.177210270833314L126.38529166666667,63.93955429166667L127.63535416666666,160.79159783333333L128.05204166666667,178.00741666666667L128.46872916666666,48.27596591666665L128.88541666666666,43.52440425L129.71879166666668,178.00741666666667L130.55216666666666,146.95176408333333L131.38554166666665,42.452123906249994L132.21891666666667,67.37142395833334L133.05229166666666,65.72442704166666L133.46897916666666,66.54564487500001L133.88566666666665,60.283332312499994L134.30235416666667,43.639233718750006L134.71904166666667,170.2245595L135.5524166666667,59.419414875L135.96910416666665,42.74410231249999L136.80247916666667,177.58425133333333L137.21916666666667,50.03843847916667L137.63585416666666,42.330871604166674L138.46922916666668,64.04811204166667L140.55266666666665,40.11395113541667L141.38604166666664,39.29334795833333L141.80272916666667,139.59227991666666L142.63610416666666,65.52802258333332L143.05279166666668,37.270454906249995L143.46947916666667,56.363277249999996L143.88616666666667,43.62888561458334L144.30285416666666,84.40376929166666L144.7195416666667,46.99233375L145.13622916666665,54.69797414583334L145.55291666666668,44.26625169791669L145.96960416666664,58.026184770833325L146.38629166666666,39.384442239583336L148.05304166666667,42.32378776041668L148.46972916666667,38.780826625L149.30310416666669,102.263314L150.55316666666664,55.6366868125L150.96985416666666,41.77852277083332L151.80322916666665,75.05942566666667L152.21991666666668,45.57433012500002L152.63660416666667,53.19022514583334L153.05329166666667,66.39062912499999L153.46997916666666,36.74679281249999L154.30335416666665,53.0079494375L154.72004166666667,48.064323916666666L155.13672916666664,177.8359285L155.55341666666666,178.00741666666667L155.9701041666667,49.295629645833344L156.38679166666665,58.73022668750001L157.63685416666667,54.37010741666667L158.05354166666666,38.52221951041665L158.5098125,31.007921002604178L158.96860416666667,30.727732083333336L159.42952083333333,37.30120301562499L160.26289583333335,178.00741666666667L160.6795833333333,39.15742548958332L160.725,35.42975227083335L160.768625,31.046012886718756L160.81016666666667,32.46489805208333L161.22685416666667,57.94591789583333L161.64354166666666,43.06034805208333L162.06022916666666,36.70014244270834L162.47691666666665,37.604194708333324L162.51797916666666,30.6866806015625L162.55720833333334,32.15856144270833L163.39058333333332,37.91121040625001L163.80727083333332,41.45871888541666L164.22395833333334,36.833460270833314L164.6406458333333,43.86987072916668L164.7188541666667,33.01935576822916L165.55222916666668,46.02019416666667L165.96891666666667,48.98647331250001L166.38560416666667,42.755613906250005L166.80229166666666,42.20300734374999L167.21897916666666,36.84956695312499L167.63566666666665,54.122266520833335L168.05235416666667,36.827451380208345L168.46904166666667,41.73644709375L168.88572916666666,37.397336921874995L168.92470833333334,34.818099307291675L169.34139583333334,39.43465029166666L169.42433333333335,32.45273865885417L169.46570833333334,31.288377385416652L170.29908333333333,41.11869067708332L170.757,31.261445846354178L170.79833333333332,32.49937883072917L171.21502083333334,38.61975423958333L171.253125,30.758512524739587L171.29558333333333,31.122010311197926L171.75072916666667,42.48783422916668L171.79354166666667,30.894715320312514L172.62691666666666,41.41927427083331L172.6665,32.65650694010415L173.0831875,67.70861158333334L173.499875,43.00019424999999L173.54183333333333,30.64279583723959L174.37520833333335,42.20096034374998L174.7918958333333,37.09725256249999L174.83704166666666,34.50802238020833L174.87564583333335,30.773366717447914L175.37347916666667,35.98831302604168L175.45575,31.77619171614583L175.49883333333332,30.931386565104162L175.58122916666665,32.79972740885415L175.62047916666668,31.706491505208334L175.65979166666668,30.8717061549479L176.1165,30.850491243489586L176.5331875,36.83922487500001L177.3665625,37.85605821875001L178.19993749999998,37.721841583333315L179.15766666666667,32.98250165625001L179.20360416666668,31.054237738281245L179.33291666666668,31.152159872395856L179.37245833333336,31.633015515625004L179.41774999999998,30.997387597656257L179.45729166666666,30.69194469661457L179.49758333333332,31.285871595052072L179.91427083333335,39.31591131249999L180.74764583333334,44.25375461458333L181.58102083333333,35.86293798437501L182.03891666666667,32.649379059895836L182.49858333333333,40.954056437500014L182.99345833333334,30.96698042317709L183.03243750000001,31.240522618489592L183.11472916666665,31.450928700520848L183.15479166666668,30.71399491015623L183.1921458333333,32.04704096614583L183.23327083333334,30.645977703125L183.27358333333333,30.96823129036457L183.36002083333332,32.19983519270835L183.77670833333335,36.33430145312502L184.23366666666666,31.980470588541664L184.27197916666665,30.71164035026041L184.31095833333333,31.44908195052085L184.35193750000002,31.346770656250015L184.768625,35.38516188020833L185.1853125,35.52107090625L186.0186875,37.302624234375L186.435375,35.91191069791668L186.89568749999998,36.2138830625L186.93591666666669,32.97876272916665L186.97516666666667,30.646818567708323L187.01397916666667,31.334255031249995L187.05258333333333,30.800002980468747L187.096,32.612697153645826L187.14035416666667,31.149686877604182L187.18091666666666,31.54333271875001L187.21902083333333,30.65094455208333L187.25691666666665,31.010201048177095L187.2968125,31.248299457031237L187.33941666666666,31.240558890624982L187.37802083333332,30.730005523437512L187.41745833333334,32.29614107291667L187.45635416666667,31.196428565104156L187.53341666666668,31.63888186718748L187.5720625,31.51524360026042L187.68991666666668,31.108108233072926L187.7298125,30.802449205729175L187.88731249999998,31.452711134114566L188.0091875,31.013215227864578L188.425875,36.352218265625L188.46535416666666,31.762106307291674L188.88204166666668,34.7891710625L188.92114583333333,30.857386194010417L189.001125,31.00016687760416L189.0404375,31.901920208333337L189.07983333333334,30.793487902343742L189.1990416666667,31.628600513020842L189.2372083333333,30.72568948697915L189.31579166666668,31.952342184895855L189.47233333333332,31.83133185156248L189.51177083333334,30.621485204427074L189.97477083333334,34.41312288541667L190.39145833333333,35.53440329166668L190.80814583333333,39.299519552083325L191.22483333333335,36.4508845L191.26364583333333,31.05142855989584L191.30304166666667,30.955414015624996L191.34141666666667,30.71792018098958L191.42010416666665,30.918834667968753L191.46027083333334,30.872502519531253L191.50210416666667,31.402039076822916L191.54289583333335,30.62121194661458L191.58216666666667,30.972090158854172L191.62041666666664,30.927086173177088L191.66443750000002,30.73805446093749L191.78300000000002,31.16586784244791L191.821375,30.833301496093753L191.86127083333335,30.83671536458334L192.09664583333333,31.077154311197916L192.55260416666667,30.834363122395814L192.96929166666666,36.89891606250001L193.38597916666666,37.38148055208333L193.80266666666668,36.81556895312502L193.8439375,31.06105098958335L193.88029166666666,33.09516754427082L193.91889583333332,31.36990150130208L193.95695833333335,31.192874011718743L194.0009375,31.104880244791673L194.042125,30.88040683203124L194.08210416666665,30.822514186197935L194.49879166666668,33.93508812499999L194.54472916666668,31.348049335937503L194.5842291666667,30.66303313932292L194.6251041666667,31.055066782552075L194.66425,32.20646314322917L194.7023125,30.753972250000004L194.78758333333332,30.817074872395835L194.82639583333332,30.76959059114583L194.86620833333333,30.798043242187504L194.94652083333332,30.620464891276043L195.02633333333333,31.33012869921876L195.48264583333332,39.12846433333334L195.52635416666666,31.790645408854147L195.56652083333333,30.970121381510438L195.6478125,30.686031179687518L195.68825,31.840472893229162L195.7309375,31.458459398437498L195.80847916666667,30.774757805989566L195.8479583333333,31.133458979166647L195.88597916666666,31.597225927083315L195.96472916666664,31.02507934505209L196.00547916666667,31.74370509374998L196.04366666666667,31.054503463541664L196.081875,30.835015441406256L196.15975,31.774014692708334L196.19939583333334,30.712095548177103L196.23952083333333,30.694145708333338L196.27760416666666,30.984218958333344L196.31616666666667,30.601822288411455L196.35429166666668,31.720254984375003L196.39322916666666,31.605905049479162L196.432625,31.145157611979158L196.47222916666666,33.87618032291667L196.51029166666666,30.838147360677084L196.55033333333333,30.953224476562497L196.59039583333333,31.080262589843755L197.00708333333333,40.22468382291669L197.04691666666665,30.663165944010416L197.12735416666666,30.95463468619792L197.16752083333333,30.63816748958334L197.20577083333333,31.797015861979162L197.286,30.6975497265625L197.3241875,31.150718489583312L197.36325,30.607168024739565L197.40327083333335,30.84911487239583L197.48070833333333,30.93037337890624L197.5209375,32.309058356770834L197.55962499999998,31.743140963541663L197.59947916666667,30.601063702473937L197.6389375,31.018302829427085L197.67812500000002,31.19551133203126L197.71985416666666,30.83533505338542L197.79691666666665,31.760184463541663L197.87579166666666,30.85083009244792L197.91566666666665,30.60490397135416L197.95485416666668,30.912438604166653L198.06629166666667,31.776146520833322L198.22239583333334,30.609779908203137L198.26085416666666,30.87951335546876L198.30154166666665,32.02973811458335L198.34085416666667,31.523263914062483L198.380625,31.629205898437505L198.41887499999999,30.749270430989583L198.45754166666666,31.522444835937506L198.4970416666667,31.109362808593744L198.61358333333334,31.725652231770823L198.65347916666667,30.66174924479165L198.731,31.01195763932293L198.813125,30.77691698307291L198.85008333333334,30.551815239583334L198.88825,32.40333230208333L198.96614583333334,31.099061174479175L199.00602083333334,30.739581367187498L199.04435416666666,30.904034941406252L199.08470833333334,30.909933161458326L199.12566666666666,30.65620331640625L199.16427083333332,30.604802281901044L199.20389583333335,31.85513541145835L199.242625,30.735486440104154L199.287625,32.042627817708336L199.32810416666666,31.001376953125003L199.36770833333333,30.845239779947917L199.40654166666667,31.296124789062503L199.44647916666665,30.705305358072906L199.48597916666665,31.570719571614575L199.52452083333333,30.781544403645825L199.5639375,31.18515975130208L199.67972916666665,31.87685002083333L199.71910416666665,30.61842252669271L199.7971875,30.83232446614585L199.87529166666667,31.442716944010414L199.91383333333334,30.60820490950522L199.95327083333333,30.741266225260404L199.99112499999998,31.315505350260423L200.03006249999999,31.41376181380207L200.06916666666666,31.080895208333345L200.10977083333333,31.303246179687505L200.14785416666666,31.068811140625L200.18629166666665,31.524515824218753L200.26329166666667,31.70232241145831L200.302875,31.408628553385427L200.34172916666668,31.041668226562507L200.3818125,30.866150955729182L200.4218125,30.78824570963542L200.87458333333333,31.31801137239583L200.9135,30.75012972135417L200.95222916666665,31.66097658072917L200.99087500000002,30.824841860677083L201.0299791666667,30.790382289062478L201.0686875,30.620583557942695L201.10689583333334,32.216860846354166L201.14533333333335,30.952765570312494L201.18570833333334,31.03341440364585L201.22427083333332,30.77953240104165L201.26375,31.480873144531245L201.2979375,31.073503920572932L201.33745833333333,30.619651201822904L201.45625,31.425906953125008L201.535,30.807491611979174L201.61333333333334,31.80353742968748L201.72860416666666,30.88731626822917L201.77310416666666,31.612895721354164L201.81245833333332,30.76364451041667L201.85054166666666,30.826599147135397L201.88970833333335,32.01053798697919L201.9277708333333,31.01254135416667L201.9685,30.68606107812502L202.00766666666667,31.517567102864575L202.04677083333334,30.68228182291668L202.0855,31.023372236979156L202.1271875,31.46220446744792L202.17008333333334,30.96005951432292L202.21185416666668,30.841647332031243L202.32908333333333,31.344042597656255L202.36747916666667,30.67144340755209L202.40608333333333,30.791059986979178L202.8614375,30.808844226562485L202.9001875,30.60112691796874L202.97789583333335,30.720825776041664L203.0160625,31.817892156249997L203.054625,31.35702257552083L203.09485416666666,31.32025804296873L203.134125,31.405331265624994L203.17310416666666,30.597536555989592L203.290625,30.603258108723963L203.329875,31.59848954166668L203.36960416666668,31.491855026041662L203.5263125,30.677868906250012L203.565,31.164036041666662L203.64197916666666,31.139225785156242L203.68179166666667,30.644979582031254L203.72191666666666,30.97045084375L203.7602916666667,30.751068045572936L203.79649999999998,30.6512495625L203.83543749999998,30.78760868750001L203.87347916666667,31.051130502604167L203.91516666666666,30.748706300781237L203.95425,30.895130305989596L203.9950625,30.64419295182293L204.07241666666667,30.79004344010417L204.1133125,30.99825697005207L204.15254166666665,30.951529188802084L204.19039583333335,30.707208776041654L204.22927083333335,30.94695774088541L204.26785416666667,30.86118109375002L204.3064375,30.86886371744791L204.34714583333331,32.04255967708335L204.4685,30.677613842447897L204.507375,31.251866989583334L204.58570833333334,31.446939924479153L204.62358333333333,30.99295057682292L204.66254166666667,30.904046761718746L204.701,30.640078787760416L204.73579166666667,30.62716434309897L204.77760416666666,30.674984634114566L204.85575,31.00192729296876L204.89483333333334,31.144494399739585L204.93322916666668,31.322013475260434L204.97277083333336,31.07654197265626L205.0120625,30.71700619270834L205.05147916666667,30.591311017578107L205.09052083333336,30.630797408854164L205.12929166666666,32.36585356770834L205.2429375,31.78046116666667L205.28170833333334,30.92978155208334L205.35910416666667,31.03257087369792L205.39825000000002,32.23989515885418L205.43710416666667,31.26106145442708L205.47666666666666,30.62101494140623L205.5534375,31.02798354947916L205.63408333333334,30.643847033854172L205.674,30.648819445312512L205.71252083333331,30.797708796874986L205.75060416666665,31.31505977083333L205.78975,31.4601364921875L205.82825,31.159465868489576L205.86735416666664,30.87178321875001L205.90560416666668,30.985275833333333L205.98504166666666,31.04457625520834L206.02429166666667,30.86935333333335L206.06564583333335,31.435790356770838L206.14385416666667,31.65542705989583L206.22072916666667,31.660848875L206.2591875,30.93022458203123L206.29749999999999,31.548948178385416L206.33577083333333,31.475519933593773L206.37435416666665,30.61908828841146L206.41270833333334,30.832978639322903L206.49254166666668,30.75277225651041L206.53199999999998,31.199597799479164L206.57183333333333,31.278909546875013L206.61139583333332,30.65718648828127L206.6505625,31.457324880208347L206.69029166666667,32.04619546614583L206.76797916666666,31.02393115234375L206.8855,32.732054497395836L206.96279166666667,30.61819336328125L207.001625,30.805712886718737L207.04072916666667,32.00758151822916L207.15710416666667,30.718976708333344L207.19641666666666,31.82694813802084L207.2749375,31.664834174479154L207.31572916666667,32.30836281250001L207.39502083333332,30.713266917968753L207.434,31.56201866276041L207.4726875,30.61466123372398L207.54952083333333,30.679848692708333L207.58760416666667,30.840185437499997L207.70362500000002,31.362665152343737L207.74258333333333,30.590944877604187L207.82114583333333,32.28921784635415L207.85943749999998,30.717937216145828L207.89929166666667,31.26898720572916L207.9376875,30.78507033333335L208.01452083333334,30.621200010416658L208.05441666666667,30.650961934895832L208.09393749999998,30.613729572916668L208.13352083333334,30.639080434895817L208.21114583333332,30.75095807031252L208.666125,31.11852042187499L208.74370833333333,30.95401342447917L208.7821875,31.80276377864584L208.821625,31.142990438802087L208.862875,30.668449507812483L208.90560416666668,30.638678080729164L209.0609375,30.741622225260414L209.0995,30.583790169921883L209.13841666666667,30.67477279557292L209.17704166666667,31.141964621093763L209.21631250000002,30.88493111458334L209.29354166666667,31.372728873697923L209.33572916666668,30.797907424479178L209.37552083333333,30.80703629817708L209.41572916666667,31.665358671874998L209.45845833333334,30.873594276041672L209.49872916666666,32.13136220833334L209.53777083333333,30.958480343749983L209.57608333333332,31.38525817317708L209.6150625,30.60870240559896L209.65335416666667,31.226346355468735L209.72991666666667,31.17927161328123L209.768125,30.912043319010422L209.80620833333333,30.668433631510396L209.8443125,30.91395820963541L209.88254166666667,31.095243213541664L209.92466666666667,30.69229536588543L210.34135416666666,33.98949076562499L210.4210625,32.16724821354168L210.46054166666667,31.6531260390625L210.49960416666667,31.454400511718745L210.5383125,30.80148364843751L210.57789583333334,31.495502287760416L210.61720833333334,31.43372238151042L210.69470833333335,30.91719720703125L210.73310416666666,30.66422420963542L210.88875000000002,30.63649277148437L210.92704166666667,30.655659929687516L211.00560416666667,31.116926417968756L211.04562499999997,31.306743949218742L211.08358333333334,31.31641180598959L211.50027083333333,39.01483914583335L211.53868749999998,30.818958473958332L211.58031250000002,30.91309602213542L211.61841666666666,30.606545024739603L211.6955625,30.984201575520814L211.73354166666667,30.62192006445312L211.77252083333335,31.172948557291647L211.81089583333335,31.103537248697933L211.88860416666665,30.61590335156251L211.9275625,31.86757038020832L211.96627083333334,30.967060268229176L212.00641666666667,30.84811234765624L212.04539583333334,31.223586660156258L212.0845625,30.633387969401042L212.27929166666667,31.278226054687508L212.31762500000002,30.938344789062512L212.357375,31.211192946614602L212.39616666666666,30.816524184895826L212.43570833333334,30.8157695390625L212.47412500000002,30.61514963281249L212.55429166666667,30.7157253111979L212.63216666666668,31.01084722526042L212.749,31.10491361979166L212.78754166666667,30.97079907942708L212.82575,30.66751697786458L212.86502083333335,30.604032107421887L212.97991666666667,31.040081986979175L213.0180208333333,30.893645697916668L213.09718750000002,30.690885272135432L213.13658333333333,30.738568065104175L213.17654166666665,31.113067433593756L213.21633333333335,30.613619887369794L213.2969791666667,32.03855954427084L213.3365,30.72403730859375L213.37554166666666,31.46335463020833L213.41460416666666,30.916589735677064L213.4539375,31.099659954427068L213.49283333333332,30.838498493489595L213.5309375,30.79566724348959L213.57006249999998,31.267207901041672L213.60925,30.846989186197902L213.6870625,31.292762141927085L213.7261041666667,30.645371854166655L213.80347916666668,30.58358893489583L213.87975,31.14839116276042L213.91777083333332,31.448830247395847L213.99527083333334,31.39590792708333L214.07404166666666,30.883682796875007L214.11239583333332,30.93250567057291L214.150375,31.112045208333342L214.1891666666667,30.66801099739581L214.30520833333333,30.623210158854164L214.34327083333332,31.051134210937505L214.3825625,30.75848633463542L214.42154166666666,31.189699330729184L214.49897916666666,31.40468497265624L214.53702083333334,30.742196901041666L214.5765,31.02436977864582L214.614875,31.020309848958334L214.65385416666666,30.804385766927084L214.77029166666668,31.749141278645823L214.84985416666666,30.70508818880208L214.89054166666665,30.741681790364595L214.970625,31.113066158854167L215.00902083333335,30.846318789062508L215.08647916666666,30.74829699348959L215.12491666666668,31.7528449765625L215.1630625,30.869162701822916L215.2013125,30.747777942708325L215.2794375,31.119723776041667L215.31833333333333,30.856082946614578L215.35720833333332,30.926920804687484L215.43379166666668,30.596392766927096L215.46937499999999,31.65653144791665L215.50841666666668,30.948139656249992L215.5465,30.82893412239585L215.62379166666668,30.610992127604163L215.66197916666667,31.14779829296873L215.73754166666666,30.995089937500012L215.8154375,30.61189029752606L215.854125,30.633360562500002L215.93283333333332,31.068570446614586L215.97104166666668,31.106663373697927L216.00997916666668,30.715993122395844L216.0480625,31.04275928776042L216.13193750000002,31.276982024739596L216.21085416666665,30.669198127604176L216.24902083333333,30.762838179687492L216.28922916666667,31.46315507552083L216.3276875,31.091708824218756L216.36729166666666,31.216588803385406L216.40702083333332,31.064348740885407L216.44560416666667,30.665616804687517L216.48508333333334,31.371803180989588L216.52422916666666,31.499964919270838L216.5631875,30.91775102343749L216.64158333333333,31.33820232031249L216.67987499999998,30.760447L216.7179583333333,30.913794695312504L216.87083333333334,31.1564176184896L216.909,30.92892979427083L217.32568750000002,33.870248380208324L217.36420833333332,30.718891532552078L217.40362499999998,31.785630815104184L217.48364583333333,30.599707205729175L217.52272916666666,30.80704614843748L217.56189583333332,30.596828380208336L217.60047916666667,30.898670721354165L217.63972916666665,31.127958941406263L217.83506250000002,31.898925729166677L217.8760208333333,30.7578013359375L217.91585416666666,30.797804402343758L217.95791666666668,31.180533605468753L217.99729166666668,30.64422910807292L218.03537500000002,30.865199304687508L218.11329166666664,30.802687929687522L218.15141666666665,31.276167466145836L218.19010416666669,30.82270435416666L218.22739583333333,30.911107312500008L218.26666666666665,31.815511174479155L218.30612499999998,31.661670966145834L218.34460416666667,30.57481241080731L218.38420833333333,31.65523723958333L218.42245833333334,30.939524966145854L218.50358333333332,30.948820946614575L218.54216666666667,31.409530141927092L218.58147916666667,30.81289082942709L218.61964583333332,30.745613666666657L218.65814583333335,31.528815173177065L218.696375,30.935854411458337L218.73497916666668,31.634305320312507L218.81118750000002,31.1832281731771L218.888625,30.93475998958334L218.92641666666668,30.69577644791667L218.96510416666666,30.774897679687484L219.00429166666666,31.691412494791678L219.04422916666667,30.981097816406248L219.12145833333332,31.810982140625015L219.19814583333334,31.030030085937483L219.2365,30.667761264322934L219.31566666666666,31.168455100260417L219.39483333333334,31.91195704427082L219.4330625,30.970548651041668L219.47316666666666,32.11734772135415L219.55139583333332,30.725406378906257L219.66735416666666,30.829566393229186L219.70522916666664,31.028610489583343L219.82002083333333,30.686136867187486L219.86049999999997,30.965542516927087L219.89854166666666,30.849131444010425L220.01637499999998,30.976488358072913L220.05535416666666,30.656349216145856L220.13352083333334,31.685139385416676L220.1721875,31.131614778645826L220.2116875,30.6186631048177L220.2506875,30.817483368489576L220.288875,31.0042269231771L220.32779166666666,30.667201421875006L220.36775,30.585986082682297L220.40716666666665,30.979053249999993L220.44702083333334,30.685791528645836L220.48641666666666,30.584968376953128L220.56297916666668,30.63562786067709L220.60202083333334,30.920422182291674L220.64306249999998,30.754342735677085L220.75985416666666,31.467212571614567L220.79770833333333,30.64890809765626L220.836,30.931612309895826L220.87460416666664,30.608562647786442L220.91472916666666,30.759809282552084L220.9535,30.873849687500012L220.99416666666667,30.647281645833317L221.07018749999997,30.570540990234377L221.10841666666667,31.005528664062496L221.18508333333332,31.790964789062485L221.22695833333333,31.292097654947924L221.2661666666667,30.759354895833326L221.30497916666667,31.412485915364584L221.34327083333332,31.083009537760404L221.38356249999998,31.07877114453126L221.42233333333334,30.95797311328127L221.46039583333334,30.754209003906254L221.499,31.728430932291673L221.537125,31.19825990234375L221.58133333333333,30.812789893229166L221.62291666666667,30.675802785156264L221.66272916666665,30.60837995442708L221.70222916666665,30.767731441406255L221.7788541666667,30.928423838541647L221.81683333333334,30.831108248697916L221.85702083333334,30.675262874999987L221.89520833333336,30.89523077864584L221.97347916666666,30.674635123697925L222.01260416666665,30.974651226562486L222.16670833333333,30.986171743489592L222.28177083333333,31.263926026041673L222.35877083333332,30.883092592447923L222.39724999999999,30.699229833333334L222.43747916666666,30.771888714843755L222.47581250000002,30.784105007812485L222.51485416666665,31.65423645312501L222.59304166666666,30.985715039062512L222.63104166666668,30.700319619791657L222.66954166666667,30.67898256510415L222.70766666666665,31.33078368359375L222.74652083333334,31.180312380208335L222.785875,30.626280832682284L222.82410416666667,30.672761604166652L222.86208333333332,30.873642947916665L222.9009375,30.793961873697924L222.93897916666666,30.831696946614585L222.9778125,30.57584946940105L223.01718749999998,31.47930811197915L223.05568749999998,30.585097647135427L223.09483333333333,31.238328096354167L223.13420833333333,30.758034265625014L223.172875,30.562576938802067L223.2109583333333,30.747280098958328L223.28785416666665,30.739435699218745L223.3263125,30.61737637109374L223.40314583333335,30.969367778645818L223.4419375,31.144079182291676L223.48225,30.79604618880208L223.56,30.65177127864584L223.59902083333333,30.76414617838543L223.6376875,31.13763050651042L223.676125,31.274992040364566L223.7159375,31.026160208333323L223.75400000000002,31.843817578124998L223.8328958333333,30.93330029687499L223.9124375,30.79978662239583L223.99089583333335,31.250368127604162L224.1068125,30.779463333333325L224.145625,30.732665325520827L224.18427083333333,31.279410635416667L224.22270833333332,30.738556013020826L224.26075,30.64445195572918L224.2997083333333,30.770280804687502L224.37731250000002,30.66309166145834L224.41772916666667,30.992577309895836L224.45575000000002,30.829911615885436L224.4941875,30.808900662760408L224.5334375,31.437363617187515L224.56889583333333,31.697364601562498L224.60760416666668,30.91754776041668L224.64712500000002,31.400836649739574L224.6861875,30.945197673177063L224.7276875,31.07366129296875L224.806625,30.83496340885418L224.845125,30.59885399934896L224.8838125,30.654804579427065L224.96164583333334,30.646977910156238L225,31.189896915364585L225.040625,30.56748399088542L225.07889583333332,30.69567052864582L225.120625,30.753917783854178L225.16,30.67528141666665L225.19920833333333,30.719157373697925L225.23774999999998,30.782244351562497L225.27629166666665,31.21647894401042L225.3158125,30.773407740885432L225.35414583333332,30.811953084635405L225.3921875,30.928881238281264L225.43097916666665,31.810532968749982L225.47106250000002,30.65167660026043L225.55025,30.915753854166667L225.5885,30.81405304427085L225.6269166666667,30.73983596744793L225.66539583333335,30.761783042968744L225.70497916666667,30.78388957682293L225.74383333333333,30.752955355468742L225.78191666666666,31.11674899739583L225.820875,30.674115841145834L225.85910416666667,30.605680113932294L225.9385625,30.89876922395834L225.9778333333333,31.555528268229153L226.05572916666665,30.820896657552083L226.17329166666667,30.717297992187497L226.21208333333334,30.80509753515625L226.25016666666667,30.968807472656266L226.32785416666667,30.808818847656255L226.36610416666667,30.791889031250008L226.405875,31.739440278645844L226.48291666666668,31.06257835937501L226.55981250000002,31.326282114583336L226.59854166666665,30.66337836197917L226.6382291666667,30.94928089583334L226.71664583333333,31.119604414062508L226.7556875,30.932637548177098L226.7951875,30.75193127604166L226.83372916666667,30.642632786458336L226.9116666666667,30.862929457031242L226.94964583333334,30.7315872434896L226.98975,30.609662805989586L227.02902083333333,30.740164270833333L227.06756249999998,30.72399280859375L227.14570833333335,30.684201812499992L227.18645833333335,30.811130529947917L227.22675,30.717693161458328L227.3063125,31.141529355468748L227.3446875,30.92875133072917L227.46075,30.691806908854176L227.49922916666668,30.918400677083326L227.53764583333333,30.683634785156272L227.57637499999998,31.132736201822922L227.65175000000002,31.777699617187494L227.69302083333335,31.243227847656243L227.73166666666665,30.953537830729175L227.7720625,31.439384542968753L227.81114583333334,31.146713953125015L227.84958333333333,30.87721129166667L227.88787499999998,30.720618572916663L227.92758333333333,30.767466990885424L228.00547916666667,30.745675897135413L228.04416666666665,31.44158914713543L228.08433333333335,30.743371747395827L228.12260416666666,30.708016033854165L228.1609375,30.87273950520833L228.20145833333333,30.796933871093728L228.2399375,30.581686965494782L228.31968750000001,30.677098152343746L228.35766666666666,30.734452278645847L228.3964375,30.58671830468751L228.43627083333334,30.82745136848959L228.47445833333333,30.971056229166663L228.5125833333333,30.923662222656247L228.6274375,30.737556153645812L228.70510416666667,30.75411177604167L228.74327083333336,30.709939731770817L228.78247916666666,31.49676729296874L228.82066666666668,31.448270636718746L228.86185416666666,30.71248573437498L228.90033333333335,31.16792712630209L228.9388541666667,31.178489154947897L228.97720833333332,30.981321475260415L229.01531250000002,30.97111173828125L229.05404166666668,30.811719343749985L229.1329375,30.972999743489567" style="fill: none;" fill="none"></path></g></g></g></g></g></g><g transform="translate(80, 178)" clip-path="url(#clip_1)"><clipPath id="clip_1"><rect width="250" height="22"></rect></clipPath><g><g><line x1="0" y1="0" x2="0" y2="5" style="visibility: inherit;" fill="rgb(0, 0, 0)" stroke="rgb(204, 204, 204)" stroke-width="1px"></line><line x1="20.833333333333332" y1="0" x2="20.833333333333332" y2="5" style="visibility: inherit;" fill="rgb(0, 0, 0)" stroke="rgb(204, 204, 204)" stroke-width="1px"></line><line x1="41.666666666666664" y1="0" x2="41.666666666666664" y2="5" style="visibility: inherit;" fill="rgb(0, 0, 0)" stroke="rgb(204, 204, 204)" stroke-width="1px"></line><line x1="62.5" y1="0" x2="62.5" y2="5" style="visibility: inherit;" fill="rgb(0, 0, 0)" stroke="rgb(204, 204, 204)" stroke-width="1px"></line><line x1="83.33333333333333" y1="0" x2="83.33333333333333" y2="5" style="visibility: inherit;" fill="rgb(0, 0, 0)" stroke="rgb(204, 204, 204)" stroke-width="1px"></line><line x1="104.16666666666667" y1="0" x2="104.16666666666667" y2="5" style="visibility: inherit;" fill="rgb(0, 0, 0)" stroke="rgb(204, 204, 204)" stroke-width="1px"></line><line x1="125" y1="0" x2="125" y2="5" style="visibility: inherit;" fill="rgb(0, 0, 0)" stroke="rgb(204, 204, 204)" stroke-width="1px"></line><line x1="145.83333333333334" y1="0" x2="145.83333333333334" y2="5" style="visibility: inherit;" fill="rgb(0, 0, 0)" stroke="rgb(204, 204, 204)" stroke-width="1px"></line><line x1="166.66666666666666" y1="0" x2="166.66666666666666" y2="5" style="visibility: inherit;" fill="rgb(0, 0, 0)" stroke="rgb(204, 204, 204)" stroke-width="1px"></line><line x1="187.5" y1="0" x2="187.5" y2="5" style="visibility: inherit;" fill="rgb(0, 0, 0)" stroke="rgb(204, 204, 204)" stroke-width="1px"></line><line x1="208.33333333333334" y1="0" x2="208.33333333333334" y2="5" style="visibility: inherit;" fill="rgb(0, 0, 0)" stroke="rgb(204, 204, 204)" stroke-width="1px"></line><line x1="229.16666666666666" y1="0" x2="229.16666666666666" y2="5" style="visibility: inherit;" fill="rgb(0, 0, 0)" stroke="rgb(204, 204, 204)" stroke-width="1px"></line><line x1="250" y1="0" x2="250" y2="5" style="visibility: inherit;" fill="rgb(0, 0, 0)" stroke="rgb(204, 204, 204)" stroke-width="1px"></line></g><g transform="translate(0, 8)"><text x="0" y="0" dx="0em" dy="0.95em" style="text-anchor: middle; visibility: hidden; font-family: &quot;Helvetica Neue&quot;, sans-serif; font-size: 12px; font-weight: 200;" fill="rgb(50, 49, 63)" stroke="none" stroke-width="1px">-1M</text><text x="20.833333333333332" y="0" dx="0em" dy="0.95em" style="text-anchor: middle; visibility: inherit; font-family: &quot;Helvetica Neue&quot;, sans-serif; font-size: 12px; font-weight: 200;" fill="rgb(50, 49, 63)" stroke="none" stroke-width="1px">0</text><text x="41.666666666666664" y="0" dx="0em" dy="0.95em" style="text-anchor: middle; visibility: hidden; font-family: &quot;Helvetica Neue&quot;, sans-serif; font-size: 12px; font-weight: 200;" fill="rgb(50, 49, 63)" stroke="none" stroke-width="1px">1M</text><text x="62.5" y="0" dx="0em" dy="0.95em" style="text-anchor: middle; visibility: inherit; font-family: &quot;Helvetica Neue&quot;, sans-serif; font-size: 12px; font-weight: 200;" fill="rgb(50, 49, 63)" stroke="none" stroke-width="1px">2M</text><text x="83.33333333333333" y="0" dx="0em" dy="0.95em" style="text-anchor: middle; visibility: hidden; font-family: &quot;Helvetica Neue&quot;, sans-serif; font-size: 12px; font-weight: 200;" fill="rgb(50, 49, 63)" stroke="none" stroke-width="1px">3M</text><text x="104.16666666666667" y="0" dx="0em" dy="0.95em" style="text-anchor: middle; visibility: inherit; font-family: &quot;Helvetica Neue&quot;, sans-serif; font-size: 12px; font-weight: 200;" fill="rgb(50, 49, 63)" stroke="none" stroke-width="1px">4M</text><text x="125" y="0" dx="0em" dy="0.95em" style="text-anchor: middle; visibility: hidden; font-family: &quot;Helvetica Neue&quot;, sans-serif; font-size: 12px; font-weight: 200;" fill="rgb(50, 49, 63)" stroke="none" stroke-width="1px">5M</text><text x="145.83333333333334" y="0" dx="0em" dy="0.95em" style="text-anchor: middle; visibility: inherit; font-family: &quot;Helvetica Neue&quot;, sans-serif; font-size: 12px; font-weight: 200;" fill="rgb(50, 49, 63)" stroke="none" stroke-width="1px">6M</text><text x="166.66666666666666" y="0" dx="0em" dy="0.95em" style="text-anchor: middle; visibility: hidden; font-family: &quot;Helvetica Neue&quot;, sans-serif; font-size: 12px; font-weight: 200;" fill="rgb(50, 49, 63)" stroke="none" stroke-width="1px">7M</text><text x="187.5" y="0" dx="0em" dy="0.95em" style="text-anchor: middle; visibility: inherit; font-family: &quot;Helvetica Neue&quot;, sans-serif; font-size: 12px; font-weight: 200;" fill="rgb(50, 49, 63)" stroke="none" stroke-width="1px">8M</text><text x="208.33333333333334" y="0" dx="0em" dy="0.95em" style="text-anchor: middle; visibility: hidden; font-family: &quot;Helvetica Neue&quot;, sans-serif; font-size: 12px; font-weight: 200;" fill="rgb(50, 49, 63)" stroke="none" stroke-width="1px">9M</text><text x="229.16666666666666" y="0" dx="0em" dy="0.95em" style="text-anchor: middle; visibility: inherit; font-family: &quot;Helvetica Neue&quot;, sans-serif; font-size: 12px; font-weight: 200;" fill="rgb(50, 49, 63)" stroke="none" stroke-width="1px">10M</text><text x="250" y="0" dx="0em" dy="0.95em" style="text-anchor: middle; visibility: hidden; font-family: &quot;Helvetica Neue&quot;, sans-serif; font-size: 12px; font-weight: 200;" fill="rgb(50, 49, 63)" stroke="none" stroke-width="1px">11M</text></g><line x1="0" y1="0" x2="250" y2="0" fill="rgb(0, 0, 0)" stroke="rgb(204, 204, 204)" stroke-width="1px"></line></g></g></g></g></svg>